<svg width="7" height="9" viewBox="0 0 7 9" fill="none" xmlns="http://www.w3.org/2000/svg">
<path d="M4.81101 1.36782C5.14858 1.00528 5.37691 0.501928 5.31441 0C4.82809 0.0174111 4.23868 0.286388 3.88961 0.648904C3.57669 0.969837 3.30273 1.48276 3.37584 1.97484C3.9185 2.01166 4.47289 1.72978 4.81101 1.36782ZM5.8467 4.83415C5.83633 3.70888 6.73475 3.16842 6.77453 3.14231C6.26944 2.37816 5.48282 2.2736 5.20267 2.26181C4.53286 2.19127 3.89665 2.66875 3.55659 2.66875C3.21792 2.66875 2.69406 2.27107 2.13853 2.28175C1.40822 2.29382 0.735303 2.72046 0.360225 3.39662C-0.398426 4.75688 0.165777 6.77191 0.905041 7.87526C1.26643 8.41541 1.69671 9.02134 2.26174 8.99942C2.80718 8.9775 3.01279 8.63549 3.67085 8.63549C4.32918 8.63549 4.51351 8.99942 5.08947 8.98846C5.67552 8.9775 6.04641 8.43791 6.40472 7.89607C6.81931 7.26964 6.99021 6.66315 7 6.63253C6.98741 6.62521 5.85873 6.17978 5.8467 4.83415Z" fill="#3B5C73"/>
</svg>
